<?xml version="1.0" encoding="UTF-8"?>
<!DOCTYPE svg PUBLIC "-//W3C//DTD SVG 1.1//EN" "http://www.w3.org/Graphics/SVG/1.1/DTD/svg11.dtd">
<!-- Creator: CorelDRAW X7 -->
<svg xmlns="http://www.w3.org/2000/svg" xml:space="preserve" width="62.558mm" height="49.2194mm" version="1.1" style="shape-rendering:geometricPrecision; text-rendering:geometricPrecision; image-rendering:optimizeQuality; fill-rule:evenodd; clip-rule:evenodd"
viewBox="0 0 6256 4922"
 xmlns:xlink="http://www.w3.org/1999/xlink">
 <defs>
  <style type="text/css">
   <![CDATA[
    .str1 {stroke:#FEFEFE;stroke-width:7.62}
    .str0 {stroke:#FEFEFE;stroke-width:7.62}
    .fil0 {fill:#FEFEFE}
    .fil1 {fill:#FEFEFE;fill-rule:nonzero}
   ]]>
  </style>
 </defs>
 <g id="Layer_x0020_1">
  <metadata id="CorelCorpID_0Corel-Layer"/>
  <g id="_1915625958736">
   <polygon class="fil0 str0" points="1561,2676 1677,2676 2104,2245 2543,2691 2858,2685 2721,2542 2586,2542 2858,2245 2956,2245 2841,2114 2633,2114 2633,2035 2656,2035 2656,1998 2508,1998 2508,2033 2528,2033 2528,2264 2478,2206 2478,2114 2104,2114 "/>
   <polygon class="fil0 str0" points="2690,2490 2995,2489 3147,2324 3267,2456 3267,2672 3305,2672 3305,2489 3351,2489 3159,2284 2879,2284 "/>
   <polygon class="fil0 str0" points="2120,2415 2120,2492 2191,2492 2191,2414 "/>
   <polygon class="fil0 str0" points="3884,2710 3884,2772 3941,2772 3941,2709 "/>
   <polygon class="fil0 str0" points="3797,2709 3797,2771 3854,2771 3854,2708 "/>
   <polygon class="fil0 str0" points="3884,2624 3884,2686 3941,2686 3941,2623 "/>
   <polygon class="fil0 str0" points="3155,2495 3155,2529 3187,2529 3187,2494 "/>
   <polygon class="fil0 str0" points="3108,2495 3108,2529 3140,2529 3140,2494 "/>
   <polygon class="fil0 str0" points="3155,2448 3155,2482 3187,2482 3187,2447 "/>
   <polygon class="fil0 str0" points="3108,2448 3108,2482 3140,2482 3140,2447 "/>
   <polygon class="fil0 str0" points="3797,2623 3797,2685 3854,2685 3854,2622 "/>
   <polygon class="fil0 str0" points="2020,2511 2020,2587 2091,2587 2091,2510 "/>
   <polygon class="fil0 str0" points="2120,2514 2120,2591 2191,2591 2191,2513 "/>
   <polygon class="fil0 str0" points="2020,2415 2020,2491 2091,2491 2091,2414 "/>
   <polygon class="fil0 str0" points="2654,2857 3455,2857 3861,2440 4268,2869 4390,2869 3853,2332 3510,2330 3510,2422 3463,2467 3463,2270 3479,2271 3479,2228 3343,2228 3343,2263 3364,2263 3364,2325 3241,2325 3433,2517 3341,2517 3341,2730 2764,2730 "/>
   <path class="fil0 str0" d="M1883 2287l39 -42 -1 -1121 62 -56 -3 1113 34 -26 0 -1112 64 -61 -7 848 41 0 -8 -867 74 -72 0 1194 33 0 0 -1225 44 -43 0 1270 227 0 0 -117 139 0 -5 -1028 28 14 0 1016 33 3 0 110 57 0 0 -1130 -17 -7 0 -586 73 -72 0 999 42 0 0 -1038 84 -84 0 1977 37 43 0 -2049 65 -65 0 2168 145 0 41 41 103 0 0 -90 45 0 0 -671 49 -49 0 714 27 0 0 -738 56 -54 -1 728 41 0 0 -750 54 -54 0 965 32 0 0 -992 50 -50 0 1042 64 0 -38 -17 0 -45 125 72 62 -7 32 33 147 61 0 -111 -366 -155 0 -52 366 151 0 -113 -364 -151 0 -50 364 152 0 -98 -366 -160 -1 -57 366 164 1 -113 -366 -153 0 -55 366 155 0 -112 -366 -147 0 -49 366 152 0 -109 -366 -155 0 -46 366 154 0 -52 -394 -171 -76 59 0 -142 -499 -213 0 -56 498 216 0 -62 -497 -211 -2 -48 499 211 0 -64 -498 -213 0 -44 498 211 0 -64 -498 -212 0 -45 498 210 0 -56 -498 -213 -1 -52 499 215 1 -64 -499 -213 -1 -50 500 209 0 -53 -500 -208 1 -57 498 215 1 -62 -500 -213 0 -51 499 218 0 -47 -560 -246 -470 418 0 460 -284 -135 -386 356 2 1184zm783 -1890l-58 57 0 448 63 27 -5 -532zm-211 478l45 23 0 862 -48 -1 3 -884zm-106 -47l26 12 0 613 -26 0 0 -625z"/>
   <path class="fil1 str0" d="M517 4596l76 -190 25 0 75 190 -25 0 -63 -166 -63 166 -25 0zm35 -45l0 -20 108 0 0 20 -108 0z"/>
   <path class="fil1 str0" d="M846 4596l0 -190 23 0 0 190 -23 0zm15 0l0 -20 117 0 0 20 -117 0z"/>
   <path class="fil1 str0" d="M1134 4596l0 -190 22 0 0 190 -22 0zm14 0l0 -20 117 0 0 20 -117 0z"/>
   <polygon class="fil1 str0" points="1745,4406 1679,4519 1679,4596 1657,4596 1657,4519 1591,4406 1616,4406 1668,4498 1720,4406 "/>
   <path class="fil1 str0" d="M1953 4598c-15,0 -28,-3 -39,-9 -11,-5 -19,-13 -25,-24 -5,-10 -8,-23 -8,-37l0 -54c0,-15 3,-27 8,-38 6,-10 14,-18 25,-24 11,-5 24,-8 39,-8 15,0 28,3 39,8 10,6 19,14 24,24 6,11 9,23 9,38l0 54c0,14 -3,27 -9,37 -5,11 -14,19 -24,24 -11,6 -24,9 -39,9zm0 -20c15,0 27,-5 36,-13 9,-9 13,-21 13,-36l0 -56c0,-15 -4,-27 -13,-36 -9,-9 -21,-13 -36,-13 -16,0 -28,4 -36,13 -9,9 -13,21 -13,36l0 56c0,15 4,27 13,36 8,8 20,13 36,13z"/>
   <path class="fil1 str0" d="M2257 4598c-24,0 -42,-6 -54,-18 -12,-12 -18,-29 -18,-52l0 -122 23 0 0 123c0,16 4,28 12,36 8,8 21,12 37,12 16,0 29,-4 37,-12 8,-8 12,-20 12,-36l0 -123 23 0 0 122c0,23 -6,40 -18,52 -12,12 -30,18 -54,18z"/>
   <path class="fil1 str0" d="M2509 4515l0 -19 70 0c10,0 19,-3 25,-10 7,-6 10,-15 10,-25l0 0c0,-11 -3,-19 -10,-26 -6,-6 -15,-9 -25,-9l-70 0 0 -20 69 0c11,0 22,2 31,7 9,4 16,11 21,19 5,8 7,18 7,29l0 0c0,11 -2,20 -7,28 -5,9 -12,15 -21,20 -9,4 -20,6 -31,6l-69 0zm-13 81l0 -190 23 0 0 190 -23 0zm123 0l-47 -86 21 -6 53 92 -27 0z"/>
   <path class="fil1 str0" d="M3068 4598c-10,0 -20,-1 -29,-3 -8,-2 -17,-4 -24,-8 -8,-3 -15,-8 -22,-13l0 0 14 -16 0 0c9,6 18,12 28,15 10,3 21,5 33,5 16,0 29,-3 39,-9 9,-6 13,-15 13,-26l0 0c0,-8 -2,-13 -6,-18 -5,-4 -11,-7 -18,-9 -7,-2 -15,-4 -24,-5 -8,-2 -16,-3 -24,-5 -8,-2 -16,-4 -23,-8 -6,-3 -12,-8 -16,-14 -4,-6 -6,-14 -6,-24l0 0c0,-18 6,-32 19,-41 13,-10 31,-15 54,-15 11,0 21,2 32,5 10,3 21,8 31,15l0 0 -14 16 0 0c-8,-5 -16,-9 -25,-12 -8,-3 -16,-4 -24,-4 -16,0 -29,3 -37,9 -9,6 -14,15 -14,26l0 0c0,8 3,13 8,17 5,4 11,7 19,9 8,2 17,4 26,6 8,1 16,3 23,5 8,2 15,5 21,8 6,4 11,9 15,15 4,6 6,14 6,23l0 1c0,17 -7,31 -20,40 -13,10 -32,15 -55,15z"/>
   <path class="fil1 str0" d="M3368 4598c-15,0 -28,-3 -39,-9 -11,-5 -19,-13 -25,-24 -5,-10 -8,-23 -8,-37l0 -54c0,-15 3,-27 8,-38 6,-10 14,-18 25,-24 11,-5 24,-8 39,-8 15,0 28,3 39,8 10,6 19,14 24,24 6,11 9,23 9,38l0 54c0,14 -3,27 -9,37 -5,11 -14,19 -24,24 -11,6 -24,9 -39,9zm0 -20c15,0 27,-5 36,-13 9,-9 13,-21 13,-36l0 -56c0,-15 -4,-27 -13,-36 -9,-9 -21,-13 -36,-13 -16,0 -28,4 -36,13 -9,9 -13,21 -13,36l0 56c0,15 4,27 13,36 8,8 20,13 36,13z"/>
   <path class="fil1 str0" d="M3606 4596l0 -190 22 0 0 190 -22 0zm14 0l0 -20 117 0 0 20 -117 0z"/>
   <path class="fil1 str0" d="M3957 4598c-24,0 -42,-6 -54,-18 -12,-12 -18,-29 -18,-52l0 -122 22 0 0 123c0,16 4,28 13,36 8,8 20,12 37,12 16,0 28,-4 37,-12 8,-8 12,-20 12,-36l0 -123 23 0 0 122c0,23 -6,40 -19,52 -12,12 -30,18 -53,18z"/>
   <path class="fil1 str0" d="M4231 4596l1 -180 22 0 0 180 -23 0zm-61 -170l0 -20 145 0 0 20 -145 0z"/>
   <polygon class="fil1 str0" points="4491,4406 4491,4596 4468,4596 4468,4406 "/>
   <path class="fil1 str0" d="M4735 4598c-16,0 -28,-3 -39,-9 -11,-5 -19,-13 -25,-24 -6,-10 -8,-23 -8,-37l0 -54c0,-15 2,-27 8,-38 6,-10 14,-18 25,-24 11,-5 23,-8 39,-8 15,0 28,3 38,8 11,6 19,14 25,24 6,11 9,23 9,38l0 54c0,14 -3,27 -9,37 -6,11 -14,19 -25,24 -10,6 -23,9 -38,9zm0 -20c15,0 27,-5 36,-13 9,-9 13,-21 13,-36l0 -56c0,-15 -4,-27 -13,-36 -9,-9 -21,-13 -36,-13 -16,0 -28,4 -37,13 -8,9 -13,21 -13,36l0 56c0,15 5,27 13,36 9,8 21,13 37,13z"/>
   <polygon class="fil1 str0" points="4972,4596 4972,4406 4994,4406 5108,4570 5101,4567 5101,4406 5124,4406 5124,4596 5102,4596 4986,4431 4995,4435 4995,4596 "/>
   <path class="fil1 str0" d="M5358 4598c-10,0 -19,-1 -28,-3 -9,-2 -17,-4 -25,-8 -7,-3 -15,-8 -21,-13l0 0 14 -16 0 0c8,6 17,12 27,15 10,3 21,5 33,5 17,0 30,-3 39,-9 9,-6 14,-15 14,-26l0 0c0,-8 -2,-13 -7,-18 -4,-4 -10,-7 -18,-9 -7,-2 -15,-4 -24,-5 -8,-2 -16,-3 -24,-5 -8,-2 -15,-4 -22,-8 -7,-3 -12,-8 -16,-14 -4,-6 -6,-14 -6,-24l0 0c0,-18 6,-32 19,-41 12,-10 30,-15 53,-15 11,0 22,2 32,5 11,3 21,8 31,15l0 0 -13 16 0 0c-8,-5 -17,-9 -25,-12 -8,-3 -17,-4 -25,-4 -16,0 -28,3 -37,9 -9,6 -13,15 -13,26l0 0c0,8 2,13 7,17 5,4 12,7 20,9 8,2 17,4 26,6 7,1 15,3 23,5 8,2 15,5 21,8 6,4 11,9 15,15 4,6 5,14 5,23l0 1c0,17 -6,31 -19,40 -13,10 -32,15 -56,15z"/>
   <path class="fil1 str0" d="M1164 4918c-24,0 -42,-6 -54,-17 -12,-12 -18,-30 -18,-53l0 -121 23 0 0 122c0,16 4,28 12,36 9,8 21,13 37,13 16,0 29,-5 37,-13 8,-8 13,-20 13,-36l0 -122 22 0 0 121c0,23 -6,41 -18,53 -12,11 -30,17 -54,17z"/>
   <polygon class="fil1 str0" points="1403,4916 1403,4727 1425,4727 1539,4891 1532,4888 1532,4727 1555,4727 1555,4916 1533,4916 1417,4752 1426,4756 1426,4916 "/>
   <path class="fil1 str0" d="M1747 4916l0 -19 46 0c18,0 32,-5 41,-12 9,-8 14,-20 14,-36l0 -56c0,-15 -5,-27 -14,-35 -9,-8 -23,-12 -41,-12l-46 0 0 -19 46 0c25,0 45,5 58,17 13,11 19,28 19,51l0 53c0,15 -2,28 -8,38 -6,10 -15,17 -27,22 -11,6 -25,8 -43,8l-45 0zm-20 0l0 -189 23 0 0 189 -23 0z"/>
   <path class="fil1 str0" d="M2036 4916l0 -189 23 0 0 189 -23 0zm14 0l0 -19 118 0 0 19 -118 0zm0 -84l0 -20 102 0 0 20 -102 0zm0 -86l0 -19 118 0 0 19 -118 0z"/>
   <path class="fil1 str0" d="M2343 4836l0 -20 70 0c11,0 20,-3 26,-9 6,-7 10,-15 10,-26l0 0c0,-10 -4,-19 -10,-25 -6,-7 -15,-10 -26,-10l-70 0 0 -20 69 0c12,0 22,3 31,7 9,5 16,11 21,19 5,9 8,18 8,29l0 0c0,11 -3,21 -8,29 -5,8 -12,15 -21,19 -9,5 -19,7 -31,7l-69 0zm-12 80l0 -190 22 0 0 190 -22 0zm122 0l-47 -86 22 -6 52 92 -27 0z"/>
   <path class="fil1 str0" d="M2908 4918c-15,0 -28,-3 -38,-8 -11,-6 -19,-14 -25,-24 -6,-11 -9,-23 -9,-38l0 -53c0,-15 3,-28 9,-38 6,-11 14,-18 25,-24 10,-6 23,-8 38,-8 15,0 28,2 39,8 11,6 19,13 25,24 5,10 8,23 8,38l0 53c0,15 -3,27 -8,38 -6,10 -14,18 -25,24 -11,5 -24,8 -39,8zm0 -20c16,0 28,-4 36,-13 9,-8 13,-20 13,-36l0 -55c0,-16 -4,-28 -13,-36 -8,-9 -20,-13 -36,-13 -15,0 -27,4 -36,13 -9,8 -13,20 -13,36l0 55c0,16 4,28 13,36 9,9 21,13 36,13z"/>
   <polygon class="fil1 str0" points="3146,4916 3146,4727 3168,4727 3282,4891 3275,4888 3275,4727 3297,4727 3297,4916 3275,4916 3160,4752 3169,4756 3169,4916 "/>
   <path class="fil1 str0" d="M3470 4916l0 -189 23 0 0 189 -23 0zm14 0l0 -19 118 0 0 19 -118 0zm0 -84l0 -20 102 0 0 20 -102 0zm0 -86l0 -19 118 0 0 19 -118 0z"/>
   <path class="fil1 str0" d="M3977 4836l0 -20 70 0c10,0 19,-3 25,-9 7,-7 10,-15 10,-26l0 0c0,-10 -3,-19 -10,-25 -6,-7 -15,-10 -25,-10l-70 0 0 -20 69 0c12,0 22,3 31,7 9,5 16,11 21,19 5,9 7,18 7,29l0 0c0,11 -2,21 -7,29 -5,8 -12,15 -21,19 -9,5 -19,7 -31,7l-69 0zm-13 80l0 -190 23 0 0 190 -23 0zm123 0l-47 -86 21 -6 53 92 -27 0z"/>
   <path class="fil1 str0" d="M4337 4918c-15,0 -28,-3 -39,-8 -11,-6 -19,-14 -25,-24 -6,-11 -8,-23 -8,-38l0 -53c0,-15 2,-28 8,-38 6,-11 14,-18 25,-24 11,-6 24,-8 39,-8 15,0 28,2 38,8 11,6 19,13 25,24 6,10 9,23 9,38l0 53c0,15 -3,27 -9,38 -6,10 -14,18 -25,24 -10,5 -23,8 -38,8zm0 -20c15,0 27,-4 36,-13 9,-8 13,-20 13,-36l0 -55c0,-16 -4,-28 -13,-36 -9,-9 -21,-13 -36,-13 -16,0 -28,4 -37,13 -8,8 -13,20 -13,36l0 55c0,16 5,28 13,36 9,9 21,13 37,13z"/>
   <path class="fil1 str0" d="M4639 4918c-15,0 -28,-3 -38,-8 -11,-6 -19,-14 -25,-24 -6,-11 -9,-23 -9,-38l0 -53c0,-15 3,-28 9,-38 6,-11 14,-18 25,-24 10,-6 23,-8 38,-8 16,0 28,2 39,8 11,6 19,13 25,24 6,10 8,23 8,38l0 53c0,15 -2,27 -8,38 -6,10 -14,18 -25,24 -11,5 -23,8 -39,8zm0 -20c16,0 28,-4 37,-13 8,-8 13,-20 13,-36l0 -55c0,-16 -5,-28 -13,-36 -9,-9 -21,-13 -37,-13 -15,0 -27,4 -36,13 -8,8 -13,20 -13,36l0 55c0,16 5,28 13,36 9,9 21,13 36,13z"/>
   <path class="fil1 str0" d="M4877 4916l0 -189 23 0 0 189 -23 0zm14 -82l0 -20 100 0 0 20 -100 0zm0 -88l0 -19 115 0 0 19 -115 0z"/>
   <path class="fil1 str1" d="M61 3800l-57 0 0 -36 1 0 0 -285 -1 0 0 -36 57 0 0 36 -2 0 0 285 2 0 0 36zm567 0l-61 0 -180 -308 0 308 -51 0 0 -357 77 0 165 283 0 -283 50 0 0 357zm197 0l138 -357 67 0 138 357 -57 0 -37 -99 -157 0 -37 99 -55 0zm233 -140l-63 -168 -62 168 125 0zm544 140l-237 0 0 -357 54 0 0 315 183 0 0 42zm145 0l138 -357 67 0 138 357 -58 0 -36 -99 -157 0 -37 99 -55 0zm233 -140l-63 -168 -63 168 126 0zm898 -109c0,15 -3,30 -9,44 -7,14 -15,25 -27,35 -14,12 -30,21 -49,28 -19,6 -43,9 -72,9l-46 0 0 133 -54 0 0 -357 102 0c24,0 45,2 62,5 17,4 32,10 45,17 15,9 27,21 35,35 9,14 13,31 13,51zm-57 1c0,-12 -2,-23 -7,-32 -5,-9 -12,-16 -22,-22 -9,-5 -18,-9 -30,-11 -11,-2 -25,-3 -42,-3l-45 0 0 142 37 0c22,0 39,-2 53,-5 13,-3 24,-9 33,-16 8,-8 14,-15 18,-24 3,-8 5,-18 5,-29zm584 248l-70 0 -130 -142 -62 0 0 142 -54 0 0 -357 105 0c23,0 43,1 59,3 16,3 31,8 45,16 14,8 26,18 34,31 8,13 12,28 12,47 0,26 -7,48 -22,66 -16,17 -36,30 -62,39l145 155zm-117 -256c0,-11 -2,-20 -7,-28 -4,-8 -10,-14 -19,-20 -8,-4 -17,-7 -27,-9 -10,-2 -23,-3 -38,-3l-54 0 0 134 48 0c15,0 29,-1 42,-3 12,-3 23,-8 32,-15 7,-7 13,-15 17,-24 4,-9 6,-20 6,-32zm597 -60c15,16 27,35 36,58 9,23 13,50 13,80 0,29 -4,55 -13,78 -8,23 -20,43 -36,59 -17,16 -36,29 -59,37 -22,7 -46,11 -73,11 -28,0 -53,-4 -75,-12 -22,-8 -41,-20 -57,-36 -16,-16 -28,-36 -36,-59 -9,-23 -13,-49 -13,-78 0,-30 4,-57 13,-79 8,-23 20,-43 36,-59 16,-16 35,-28 57,-36 23,-8 47,-12 75,-12 28,0 53,4 75,12 23,9 41,21 57,36zm-8 138c0,-24 -3,-45 -9,-63 -5,-18 -14,-33 -24,-45 -11,-13 -24,-22 -39,-28 -16,-6 -33,-9 -52,-9 -20,0 -37,3 -52,9 -14,6 -27,15 -39,28 -11,12 -19,27 -25,45 -5,19 -8,40 -8,63 0,46 11,82 33,107 23,25 53,37 91,37 38,0 68,-12 91,-37 22,-25 33,-61 33,-107zm426 85c0,31 -11,56 -33,73 -21,17 -51,25 -88,25 -9,0 -20,-1 -35,-2 -15,-2 -27,-3 -37,-5l0 -46 3 0c8,3 17,5 28,8 11,2 22,4 34,4 17,0 30,-2 40,-5 10,-4 18,-8 22,-15 5,-6 8,-14 10,-23 1,-9 2,-20 2,-32l0 -208 -87 0 0 -38 141 0 0 264zm239 93l0 -357 255 0 0 42 -201 0 0 98 188 0 0 42 -188 0 0 133 201 0 0 42 -255 0zm633 6c-27,0 -52,-4 -74,-11 -23,-8 -42,-20 -58,-35 -17,-16 -29,-35 -38,-58 -9,-23 -14,-50 -14,-80 0,-30 5,-56 13,-78 9,-22 22,-42 39,-58 16,-16 35,-28 57,-37 23,-8 48,-12 75,-12 14,0 27,1 39,2 12,2 23,4 33,7 9,2 18,5 27,9 10,4 19,8 28,12l0 57 -5 0c-4,-4 -11,-8 -18,-14 -8,-5 -17,-10 -27,-15 -11,-5 -22,-9 -34,-12 -13,-4 -27,-5 -43,-5 -17,0 -34,3 -49,9 -16,6 -30,16 -41,28 -12,12 -21,27 -27,45 -7,19 -10,39 -10,62 0,25 4,45 10,63 7,18 16,32 28,45 11,11 25,20 40,26 16,6 32,9 49,9 16,0 30,-1 44,-5 13,-3 25,-7 35,-13 10,-5 19,-10 26,-15 8,-5 13,-9 18,-13l4 0 0 57c-9,3 -18,7 -26,10 -8,4 -17,7 -29,10 -11,3 -23,6 -33,8 -10,2 -23,2 -39,2zm431 -6l0 -315 -137 0 0 -42 329 0 0 42 -137 0 0 315 -55 0zm502 6c-29,0 -54,-2 -75,-8 -21,-5 -40,-12 -59,-19l0 -60 4 0c18,15 38,26 61,34 23,8 44,12 65,12 30,0 53,-5 68,-16 16,-11 23,-25 23,-43 0,-15 -4,-26 -12,-35 -8,-9 -21,-16 -38,-20 -13,-3 -24,-6 -35,-8 -10,-2 -23,-5 -39,-8 -14,-3 -27,-7 -38,-12 -11,-5 -21,-12 -29,-20 -9,-8 -15,-17 -20,-27 -5,-11 -7,-23 -7,-37 0,-29 13,-53 39,-73 26,-20 59,-29 99,-29 23,0 44,2 65,6 20,4 39,9 56,17l0 57 -4 0c-13,-11 -29,-20 -50,-27 -20,-8 -41,-12 -64,-12 -25,0 -45,5 -61,15 -15,11 -23,24 -23,41 0,15 4,27 14,36 9,9 22,15 39,20 12,2 26,5 42,9 17,3 31,6 42,9 28,8 49,19 62,34 13,15 19,34 19,56 0,14 -3,28 -10,42 -6,13 -15,25 -27,34 -13,10 -28,18 -45,24 -16,6 -37,8 -62,8z"/>
  </g>
 </g>
</svg>
